<svg width="135" height="102" viewBox="0 0 135 102" fill="none" xmlns="http://www.w3.org/2000/svg">
<path d="M26.4023 75.2139L17.5697 75.1751C9.92519 75.5315 6.54781 73.4294 5.07612 68.0275L0.239177 50.246C-0.747609 46.6238 1.41023 42.8536 5.03248 41.8668L16.0011 38.8822C21.4029 37.413 27.023 40.6279 28.4947 46.0298L32.9849 61.6365C34.4542 67.0383 31.8066 73.7446 26.4047 75.2139H26.4023Z" fill="#C9E9FF"/>
<path d="M44.8288 9.82419C44.676 9.69569 29.3093 -2.90461 11.9182 3.45979C11.729 3.5301 11.5957 3.69982 11.5739 3.89863C11.552 4.09744 9.57605 23.8647 28.662 33.8247C28.7396 33.8659 28.8244 33.8853 28.9069 33.8853C29.079 33.8853 29.2463 33.8028 29.3457 33.6525L44.9258 10.5273C45.0785 10.3018 45.0349 9.99876 44.8263 9.82419H44.8288Z" fill="#C9E9FF"/>
<path d="M41.7981 101.973H32.197C30.461 101.973 29.0524 100.565 29.0524 98.8288L26.4048 80.7515C26.4048 79.0155 27.8134 77.6069 29.5494 77.6069H44.4482C46.1841 77.6069 47.5928 79.0155 47.5928 80.7515L44.9452 98.8288C44.9452 100.565 43.5365 101.973 41.8006 101.973H41.7981Z" fill="#CAE9FF"/>
<path d="M106.555 101.973H96.9538C95.2179 101.973 93.8092 100.565 93.8092 98.8288L91.1616 80.7515C91.1616 79.0155 92.5703 77.6069 94.3062 77.6069H109.205C110.941 77.6069 112.35 79.0155 112.35 80.7515L109.702 98.8288C109.702 100.565 108.293 101.973 106.557 101.973H106.555Z" fill="#CAE9FF"/>
<path d="M125.537 50.3236C125.537 77.2383 99.8632 99.0567 68.194 99.0567C36.5247 99.0567 12.7555 77.6964 12.7555 50.7817C12.7555 23.8669 30.4513 -1.52588e-05 68.194 -1.52588e-05C105.937 -1.52588e-05 125.537 23.4089 125.537 50.3236Z" fill="#DEF2FF"/>
<path d="M56.2555 10.2817C59.7555 8.78168 63.9973 7.7617 68.7555 7.78169C73.4204 7.80129 77.7555 8.78169 81.2555 10.2817" stroke="#C9E9FF" stroke-width="5" stroke-linecap="round" stroke-linejoin="round"/>
<path d="M132.357 26.6335C131.152 26.2577 129.903 26.7329 129.251 27.8118C125.896 33.3591 119.917 34.4332 117.364 34.8914C116.42 35.0612 115.989 35.1387 115.569 35.4903C115.065 35.9122 114.874 36.6007 115.087 37.2238L119.286 49.4726C119.427 49.8848 119.732 50.2218 120.13 50.4036C120.338 50.4982 120.564 50.5467 120.789 50.5467C120.991 50.5467 121.194 50.5079 121.386 50.4303C131.743 46.2358 133.892 35.4394 134.25 29.3756C134.326 28.1124 133.562 27.0141 132.354 26.6359L132.357 26.6335Z" fill="#DEF2FF"/>
<path d="M31.4526 42.3323C33.3634 42.3323 34.9124 40.7833 34.9124 38.8725C34.9124 36.9617 33.3634 35.4127 31.4526 35.4127C29.5418 35.4127 27.9928 36.9617 27.9928 38.8725C27.9928 40.7833 29.5418 42.3323 31.4526 42.3323Z" fill="#1073F5"/>
<path d="M27.1151 84.3204C37.5309 93.41 52.0854 99.0567 68.194 99.0567C99.2789 99.0567 124.584 78.0336 125.508 51.805C94.071 93.8197 47.5927 88.6724 27.1151 84.318V84.3204Z" fill="#C9E9FF"/>
<path d="M2.36067 51.8074C2.36067 51.8074 -0.762132 43.9713 11.5084 41.942C11.5084 41.942 4.48456 45.4018 2.36067 51.8074Z" fill="#EBF7FF"/>
<path d="M13.3486 5.19334C13.3486 5.19334 17.8437 2.69607 21.5048 3.36281C21.5048 3.36281 15.8459 8.02276 18.1759 22.0075C18.1759 22.0075 13.3486 14.3508 13.3486 5.19334Z" fill="#EBF7FF"/>
</svg>
