<svg width="21" height="20" viewBox="0 0 21 20" fill="none" xmlns="http://www.w3.org/2000/svg">
<path d="M16.5 2.1875H14.9375V1.875C14.9375 1.62636 14.8387 1.3879 14.6629 1.21209C14.4871 1.03627 14.2486 0.9375 14 0.9375C13.7514 0.9375 13.5129 1.03627 13.3371 1.21209C13.1613 1.3879 13.0625 1.62636 13.0625 1.875V2.1875H7.4375V1.875C7.4375 1.62636 7.33873 1.3879 7.16291 1.21209C6.9871 1.03627 6.74864 0.9375 6.5 0.9375C6.25136 0.9375 6.0129 1.03627 5.83709 1.21209C5.66127 1.3879 5.5625 1.62636 5.5625 1.875V2.1875H4C3.5856 2.1875 3.18817 2.35212 2.89515 2.64515C2.60212 2.93817 2.4375 3.3356 2.4375 3.75V16.25C2.4375 16.6644 2.60212 17.0618 2.89515 17.3549C3.18817 17.6479 3.5856 17.8125 4 17.8125H16.5C16.9144 17.8125 17.3118 17.6479 17.6049 17.3549C17.8979 17.0618 18.0625 16.6644 18.0625 16.25V3.75C18.0625 3.3356 17.8979 2.93817 17.6049 2.64515C17.3118 2.35212 16.9144 2.1875 16.5 2.1875ZM5.5625 4.0625C5.5625 4.31114 5.66127 4.5496 5.83709 4.72541C6.0129 4.90123 6.25136 5 6.5 5C6.74864 5 6.9871 4.90123 7.16291 4.72541C7.33873 4.5496 7.4375 4.31114 7.4375 4.0625H13.0625C13.0625 4.31114 13.1613 4.5496 13.3371 4.72541C13.5129 4.90123 13.7514 5 14 5C14.2486 5 14.4871 4.90123 14.6629 4.72541C14.8387 4.5496 14.9375 4.31114 14.9375 4.0625H16.1875V5.9375H4.3125V4.0625H5.5625ZM4.3125 15.9375V7.8125H16.1875V15.9375H4.3125Z" fill="#B0B7B9"/>
</svg>
