<svg width="21" height="20" viewBox="0 0 21 20" fill="none" xmlns="http://www.w3.org/2000/svg">
<path d="M10.75 1.5625C9.08122 1.5625 7.44992 2.05735 6.06238 2.98448C4.67484 3.9116 3.59338 5.22936 2.95477 6.77111C2.31616 8.31286 2.14907 10.0094 2.47463 11.6461C2.80019 13.2828 3.60379 14.7862 4.78379 15.9662C5.9638 17.1462 7.46721 17.9498 9.10393 18.2754C10.7406 18.6009 12.4371 18.4338 13.9789 17.7952C15.5206 17.1566 16.8384 16.0752 17.7655 14.6876C18.6927 13.3001 19.1875 11.6688 19.1875 10C19.185 7.763 18.2953 5.61833 16.7135 4.03653C15.1317 2.45473 12.987 1.56498 10.75 1.5625ZM11.6875 3.50547C13.3544 3.74649 14.8649 4.6192 15.9063 5.94297L11.6875 8.37656V3.50547ZM4.65625 12.4352C4.28704 11.5134 4.13198 10.5198 4.20276 9.52935C4.27354 8.53891 4.56832 7.57747 5.06485 6.71757C5.56138 5.85766 6.24671 5.12174 7.06914 4.56531C7.89156 4.00889 8.8296 3.6465 9.8125 3.50547V9.45859L4.65625 12.4352ZM10.75 16.5625C9.75753 16.5623 8.77806 16.3367 7.88552 15.9027C6.99298 15.4686 6.21068 14.8376 5.59766 14.057L16.8438 7.56484C17.2416 8.56052 17.3895 9.63853 17.2744 10.7046C17.1592 11.7706 16.7847 12.7922 16.1834 13.68C15.5821 14.5678 14.7725 15.2947 13.8253 15.7972C12.8781 16.2997 11.8222 16.5625 10.75 16.5625Z" fill="#B0B7B9"/>
</svg>
