<svg width="18" height="17" viewBox="0 0 18 17" fill="none" xmlns="http://www.w3.org/2000/svg">
<path d="M16.7305 4.51097L13.2391 1.02035C12.9461 0.727422 12.5487 0.562866 12.1344 0.562866C11.7201 0.562866 11.3227 0.727422 11.0297 1.02035L1.39532 10.6539C1.24973 10.7986 1.1343 10.9708 1.05571 11.1604C0.977128 11.35 0.93695 11.5534 0.937506 11.7586V15.25C0.937506 15.6644 1.10213 16.0619 1.39515 16.3549C1.68818 16.6479 2.08561 16.8125 2.50001 16.8125H15.625C15.8736 16.8125 16.1121 16.7138 16.2879 16.5379C16.4637 16.3621 16.5625 16.1237 16.5625 15.875C16.5625 15.6264 16.4637 15.3879 16.2879 15.2121C16.1121 15.0363 15.8736 14.9375 15.625 14.9375H8.51563L16.7305 6.72113C16.8756 6.57603 16.9908 6.40375 17.0693 6.21414C17.1479 6.02452 17.1883 5.82129 17.1883 5.61605C17.1883 5.4108 17.1479 5.20757 17.0693 5.01796C16.9908 4.82835 16.8756 4.65607 16.7305 4.51097ZM5.85938 14.9375H2.81251V11.8907L9.37501 5.32816L12.4219 8.37503L5.85938 14.9375ZM13.75 7.04691L10.7031 4.00003L12.1359 2.56722L15.1828 5.6141L13.75 7.04691Z" fill="#F51014"/>
</svg>
