<svg width="21" height="20" viewBox="0 0 21 20" fill="none" xmlns="http://www.w3.org/2000/svg">
<path d="M18.5609 16.4063C17.4898 14.5264 15.8172 13.0616 13.8124 12.2477C14.8094 11.5 15.5458 10.4575 15.9174 9.26805C16.2889 8.07856 16.2768 6.80231 15.8828 5.62008C15.4887 4.43785 14.7326 3.40958 13.7217 2.68093C12.7107 1.95228 11.4961 1.56018 10.2499 1.56018C9.00377 1.56018 7.78918 1.95228 6.77823 2.68093C5.76727 3.40958 5.01121 4.43785 4.61714 5.62008C4.22306 6.80231 4.21095 8.07856 4.58252 9.26805C4.95409 10.4575 5.6905 11.5 6.68744 12.2477C4.6827 13.0616 3.01013 14.5264 1.93901 16.4063C1.87263 16.513 1.8284 16.632 1.80893 16.7561C1.78946 16.8803 1.79515 17.0071 1.82566 17.129C1.85618 17.2509 1.91089 17.3655 1.98656 17.4658C2.06222 17.5662 2.15729 17.6503 2.26611 17.7131C2.37493 17.776 2.49528 17.8164 2.62001 17.8318C2.74473 17.8472 2.87129 17.8374 2.99215 17.803C3.11301 17.7685 3.2257 17.7101 3.32354 17.6312C3.42138 17.5523 3.50236 17.4546 3.56166 17.3438C4.97729 14.8969 7.47729 13.4375 10.2499 13.4375C13.0226 13.4375 15.5226 14.8977 16.9382 17.3438C17.0668 17.5504 17.2706 17.699 17.5067 17.7581C17.7428 17.8172 17.9926 17.7822 18.2033 17.6604C18.4141 17.5387 18.5692 17.3398 18.6359 17.1057C18.7026 16.8717 18.6757 16.6208 18.5609 16.4063ZM6.18744 7.50002C6.18744 6.69654 6.4257 5.9111 6.8721 5.24302C7.31849 4.57495 7.95297 4.05424 8.69529 3.74676C9.43762 3.43928 10.2545 3.35883 11.0425 3.51558C11.8305 3.67234 12.5544 4.05925 13.1226 4.6274C13.6907 5.19555 14.0776 5.91942 14.2344 6.70747C14.3911 7.49552 14.3107 8.31235 14.0032 9.05468C13.6957 9.797 13.175 10.4315 12.5069 10.8779C11.8389 11.3243 11.0534 11.5625 10.2499 11.5625C9.17288 11.5613 8.14029 11.1329 7.37869 10.3713C6.61709 9.60968 6.18868 8.57709 6.18744 7.50002Z" fill="#B0B7B9"/>
</svg>
